<svg width="0" height="0" class="hidden">
  <symbol id="copy" xmlns="http://www.w3.org/2000/svg" viewBox="0 0 24 24">
    <defs></defs>
    <title>copy</title>
    <g id="copy-Regular">
      <path id="copy-Regular-2" d="M21.237,6.177,17.823,2.763a1.736,1.736,0,0,0-1.237-.513H11A3.754,3.754,0,0,0,7.25,6v.25H6A3.754,3.754,0,0,0,2.25,10v8A3.754,3.754,0,0,0,6,21.75h7A3.754,3.754,0,0,0,16.75,18v-.25H18A3.754,3.754,0,0,0,21.75,14V7.414A1.736,1.736,0,0,0,21.237,6.177ZM17.75,4.811,19.189,6.25h-.377A1.064,1.064,0,0,1,17.75,5.188ZM15.25,18A2.252,2.252,0,0,1,13,20.25H6A2.252,2.252,0,0,1,3.75,18V10A2.252,2.252,0,0,1,6,7.75H7.25V14A3.754,3.754,0,0,0,11,17.75h4.25ZM18,16.25H11A2.252,2.252,0,0,1,8.75,14V6A2.252,2.252,0,0,1,11,3.75h5.25V5.188A2.565,2.565,0,0,0,18.812,7.75H20.25V14A2.252,2.252,0,0,1,18,16.25Z"></path>
    </g>
  </symbol>
  <symbol version="1.1" id="location" xmlns="http://www.w3.org/2000/svg" xmlns:xlink="http://www.w3.org/1999/xlink" x="0px" y="0px" xml:space="preserve" viewBox="0 0 315 315">
    <g>
      <g>
        <g>
          <path d="M157.5,0C93.319,0,41.103,52.215,41.103,116.397c0,62.138,106.113,190.466,110.63,195.898
				c1.425,1.713,3.538,2.705,5.767,2.705c2.228,0,4.342-0.991,5.767-2.705c4.518-5.433,110.63-133.76,110.63-195.898
				C273.897,52.215,221.682,0,157.5,0z M157.5,295.598c-9.409-11.749-28.958-36.781-48.303-65.397
				c-34.734-51.379-53.094-90.732-53.094-113.804C56.103,60.486,101.59,15,157.5,15c55.91,0,101.397,45.486,101.397,101.397
				c0,23.071-18.359,62.424-53.094,113.804C186.457,258.817,166.909,283.849,157.5,295.598z"></path>
          <path d="M195.657,213.956c-3.432-2.319-8.095-1.415-10.413,2.017c-10.121,14.982-21.459,30.684-33.699,46.67
				c-2.518,3.289-1.894,7.996,1.395,10.514c1.36,1.042,2.963,1.546,4.554,1.546c2.254,0,4.484-1.013,5.96-2.941
				c12.42-16.22,23.933-32.165,34.219-47.392C199.992,220.938,199.09,216.275,195.657,213.956z"></path>
          <path d="M157.5,57.5C123.589,57.5,96,85.089,96,119s27.589,61.5,61.5,61.5S219,152.911,219,119S191.411,57.5,157.5,57.5z
				 M157.5,165.5c-25.64,0-46.5-20.86-46.5-46.5s20.86-46.5,46.5-46.5c25.641,0,46.5,20.86,46.5,46.5S183.141,165.5,157.5,165.5z"></path>
        </g>
      </g>
    </g>
    <g></g>
    <g></g>
    <g></g>
    <g></g>
    <g></g>
    <g></g>
    <g></g>
    <g></g>
    <g></g>
    <g></g>
    <g></g>
    <g></g>
    <g></g>
    <g></g>
    <g></g>
  </symbol>

  <symbol xmlns="http://www.w3.org/2000/svg" viewBox="0 0 36 36" id="hashtag">
    <title>hashtag-outline</title>
    <g id="bb4ed7a9-727c-433e-a92a-fb7b8fd366b0">
      <path d="M32,12H25.34l1.55-7.74a1,1,0,0,0-2-.39L23.3,12H15.11l1.55-7.74a1,1,0,0,0-2-.39L13.07,12H6a1,1,0,0,0,0,2h6.67l-1.6,8H4a1,1,0,0,0,0,2h6.66L9.11,31.74a1,1,0,0,0,.79,1.17.68.68,0,0,0,.2,0,1,1,0,0,0,1-.8L12.7,24h8.19l-1.55,7.74a1,1,0,0,0,.79,1.17.62.62,0,0,0,.19,0,1,1,0,0,0,1-.8L22.93,24H30a1,1,0,0,0,0-2H23.33l1.61-8H32a1,1,0,0,0,0-2ZM21.29,22H13.1l1.61-8H22.9Z"></path>
    </g>
  </symbol>


 <symbol version="1.1" id="search-svgrepo-com" xmlns="http://www.w3.org/2000/svg" xmlns:xlink="http://www.w3.org/1999/xlink" x="0px" y="0px" xml:space="preserve" viewBox="0 0 183.792 183.792">
    <path d="M54.734,9.053C39.12,18.067,27.95,32.624,23.284,50.039c-4.667,17.415-2.271,35.606,6.743,51.22
	c12.023,20.823,34.441,33.759,58.508,33.759c7.599,0,15.139-1.308,22.287-3.818l30.364,52.592l21.65-12.5l-30.359-52.583
	c10.255-8.774,17.638-20.411,21.207-33.73c4.666-17.415,2.27-35.605-6.744-51.22C134.918,12.936,112.499,0,88.433,0
	C76.645,0,64.992,3.13,54.734,9.053z M125.29,46.259c5.676,9.831,7.184,21.285,4.246,32.25c-2.938,10.965-9.971,20.13-19.802,25.806
	c-6.462,3.731-13.793,5.703-21.199,5.703c-15.163,0-29.286-8.146-36.857-21.259c-5.676-9.831-7.184-21.284-4.245-32.25
	c2.938-10.965,9.971-20.13,19.802-25.807C73.696,26.972,81.027,25,88.433,25C103.597,25,117.719,33.146,125.29,46.259z"></path>
    <g></g>
    <g></g>
    <g></g>
    <g></g>
    <g></g>
    <g></g>
    <g></g>
    <g></g>
    <g></g>
    <g></g>
    <g></g>
    <g></g>
    <g></g>
    <g></g>
    <g></g>
  </symbol>



 
</svg>









